<svg xmlns="http://www.w3.org/2000/svg" xmlns:xlink="http://www.w3.org/1999/xlink" width="835.97" height="641.2" viewBox="0 0 835.97 641.2"><defs><path id="a" d="M-107-99h800v800h-800z"/></defs><clipPath id="b"><use xlink:href="#a" overflow="visible"/></clipPath><path clip-path="url(#b)" fill="#F1B085" d="M625.275 124.053c24.526 14.464-18.236-88.878-18.236-88.878S590 12.09 478.75 26.37c-78.29 10.052-110.746 28.3-125.807 28.3-15.062 0-45.734-2.92-65.858-2.92-20.124 0-46.268 4.86-72.585 13.5-33.5 11-22.565 33.926-7.5 33 10.117-.622 12.75-4.75 21.112-5.384-7.5 5.104-66.045 25.32-72.333 55.506-6.29 30.186 14.887 25.608 28.03 12.578 13.144-13.03 43.69-38.45 55.313-35.857-4.13 4.73-34.526 24.57-49.917 52.24-24.034 43.207 8.255 48.058 21.462 39.254 13.206-8.804 37.805-53.082 53.942-65.78 18.96-14.917 40.518-20.58 45.29-18.47-16.566 16.33-25.56 20.122-43.233 54.7-24 46.962-18.518 69.986-10.972 81.306 7.547 11.318 21.067 3.458 26.098-2.2 5.03-5.66 10.863-50.082 31.558-78.75 20.695-28.666 62.318-55.393 78.3-34.24 13.996 18.527-3.456 33.58-6.6 56.22-3.146 22.64-9.935 67.995 11.318 71.31 31.966 4.984 21.522-90.256 52.966-105.35 31.444-15.093 58.178-43.4 68.868-66.667 19.494.63 82.547.923 107.073 15.387z"/><g clip-path="url(#b)"><path fill="#E87442" d="M407.043 265.572c-112.1-42.898-219.188-5.636-219.188-5.636s-16.282-51.355-52.293-42.273c-36.01 9.08-17.646 76.564-16.282 82.352-18.79 6.574-49.788 55.737-49.788 55.737s-43.925 5.09-51.4 5.792c-7.476.703-8.633 4.817-9 6.936-13.567 77.878 23.57 105.473 37.162 112.808 2.93 1.58 5.174 2.293 10.602.482 17.334-5.777 53.54-17.493 75.575-34.273 2.717 31.588-35.997 63.177-52.523 75.144-4.443 3.22-5.874 5.644-2.383 10.618 2.727 3.88 18.252 21.194 24.928 28.598 1.873 2.08 3.4 4.754 4.017 7.132 3.07 11.804 12.813 49.795 19.622 65.094 1.89 4.248 3.328 6.864 12.303 6.864h52.397c9.186 0 9.448-9.25 9.448-9.25l4.838-33.27s16.595 27.24 87.676 27.24c71.08 0 99.888-27.24 99.888-27.24s-9.096 35.394-8.084 31.367c1.01-4.026-4.593 10.494 5.206 11.152 9.797.658 49.006 0 57.47 0 11.522 0 43.643-82.67 63.455-108.278 40.707-52.604 33.19-119.612 28.494-133.703-4.7-14.09-20.04-90.494-132.14-133.392z"/><defs><path id="c" d="M624.95 349.6c0 122.014-120.525 241.873-325.64 241.873-205.117 0-360.675-141.6-360.675-263.614 0-122.012 155.56-192.207 360.674-192.207 205.115 0 325.64 91.936 325.64 213.947z"/></defs><clipPath id="d"><use xlink:href="#c" overflow="visible"/></clipPath><path clip-path="url(#d)" fill="#DDA23D" d="M407.043 265.572c-112.1-42.898-219.188-5.636-219.188-5.636s-16.282-51.355-52.293-42.273c-36.01 9.08-17.646 76.564-16.282 82.352-18.79 6.574-49.788 55.737-49.788 55.737s-43.925 5.09-51.4 5.792c-7.476.703-8.633 4.817-9 6.936-13.567 77.878 23.57 105.473 37.162 112.808 2.93 1.58 5.174 2.293 10.602.482 17.334-5.777 53.54-17.493 75.575-34.273 2.717 31.588-35.997 63.177-52.523 75.144-4.443 3.22-5.874 5.644-2.383 10.618 2.727 3.88 18.252 21.194 24.928 28.598 1.873 2.08 3.4 4.754 4.017 7.132 3.07 11.804 12.813 49.795 19.622 65.094 1.89 4.248 3.328 6.864 12.303 6.864h52.397c9.186 0 9.448-9.25 9.448-9.25l4.838-33.27s16.595 27.24 87.676 27.24c71.08 0 99.888-27.24 99.888-27.24s-9.096 35.394-8.084 31.367c1.01-4.026-4.593 10.494 5.206 11.152 9.797.658 49.006 0 57.47 0 11.522 0 43.643-82.67 63.455-108.278 40.707-52.604 33.19-119.612 28.494-133.703-4.7-14.09-20.04-90.494-132.14-133.392z"/><path clip-path="url(#d)" fill="#FF884D" d="M407.043 265.572c-112.1-42.898-219.188-5.636-219.188-5.636s-16.282-51.355-52.293-42.273c-36.01 9.08-17.646 76.564-16.282 82.352-18.79 6.574-49.788 55.737-49.788 55.737s-43.925 5.09-51.4 5.792c-7.476.703-8.633 4.817-9 6.936-13.567 77.878 23.57 105.473 37.162 112.808 2.93 1.58 5.174 2.293 10.602.482 17.334-5.777 53.54-17.493 75.575-34.273 2.717 31.588-35.997 63.177-52.523 75.144-4.443 3.22-5.874 5.644-2.383 10.618 2.727 3.88 18.252 21.194 24.928 28.598 1.873 2.08 3.4 4.754 4.017 7.132 3.07 11.804 12.813 49.795 19.622 65.094 1.89 4.248 3.328 6.864 12.303 6.864h52.397c9.186 0 9.448-9.25 9.448-9.25l4.838-33.27s16.595 27.24 87.676 27.24c71.08 0 99.888-27.24 99.888-27.24s-9.096 35.394-8.084 31.367c1.01-4.026-4.593 10.494 5.206 11.152 9.797.658 49.006 0 57.47 0 11.522 0 43.643-82.67 63.455-108.278 40.707-52.604 33.19-119.612 28.494-133.703-4.7-14.09-20.04-90.494-132.14-133.392z"/><path fill="#C54A29" d="M400.96 321.218c-1.664 0-3.353-.34-4.97-1.06-70.683-31.53-149.52-14.225-150.31-14.05-6.566 1.495-13.11-2.625-14.607-9.195-1.496-6.57 2.608-13.107 9.177-14.61 3.532-.806 87.387-19.377 165.69 15.55 6.158 2.75 8.925 9.97 6.178 16.128-2.03 4.54-6.486 7.238-11.158 7.238z"/><g><defs><path id="e" d="M400.96 335.648c-1.664 0-3.353-.34-4.97-1.06-70.683-31.53-149.52-14.226-150.31-14.046-6.566 1.49-13.11-2.627-14.607-9.2-1.496-6.57 2.608-13.107 9.177-14.608 3.532-.807 87.387-19.378 165.69 15.55 6.158 2.75 8.925 9.967 6.178 16.126-2.03 4.542-6.486 7.238-11.158 7.238z"/></defs><use xlink:href="#e" overflow="visible" fill="#FF884D"/><clipPath id="f"><use xlink:href="#e" overflow="visible"/></clipPath><path clip-path="url(#f)" fill="#B24223" d="M400.96 321.218c-1.664 0-3.353-.34-4.97-1.06-70.683-31.53-149.52-14.225-150.31-14.05-6.566 1.495-13.11-2.625-14.607-9.195-1.496-6.57 2.608-13.107 9.177-14.61 3.532-.806 87.387-19.377 165.69 15.55 6.158 2.75 8.925 9.97 6.178 16.128-2.03 4.54-6.486 7.238-11.158 7.238z"/></g><g><circle fill="#FFF" cx="159.673" cy="365.459" r="29.532"/><circle fill="#231F20" cx="159.673" cy="365.631" r="16.031"/><circle fill="#FFF" cx="165.171" cy="355.098" r="10.533"/></g><path fill="none" d="M407.043 265.572c-112.1-42.898-219.188-5.636-219.188-5.636s-16.282-51.355-52.293-42.273c-36.01 9.08-17.646 76.564-16.282 82.352-18.79 6.574-49.788 55.737-49.788 55.737s-43.925 5.09-51.4 5.792c-7.476.703-8.633 4.817-9 6.936-13.567 77.878 23.57 105.473 37.162 112.808 2.93 1.58 5.174 2.293 10.602.482 17.334-5.777 53.54-17.493 75.575-34.273 2.717 31.588-35.997 63.177-52.523 75.144-4.443 3.22-5.874 5.644-2.383 10.618 2.727 3.88 18.252 21.194 24.928 28.598 1.873 2.08 3.4 4.754 4.017 7.132 3.07 11.804 12.813 49.795 19.622 65.094 1.89 4.248 3.328 6.864 12.303 6.864h52.397c9.186 0 9.448-9.25 9.448-9.25l4.838-33.27s16.595 27.24 87.676 27.24c71.08 0 99.888-27.24 99.888-27.24s-9.096 35.394-8.084 31.367c1.01-4.026-4.593 10.494 5.206 11.152 9.797.658 49.006 0 57.47 0 11.522 0 43.643-82.67 63.455-108.278 40.707-52.604 30.773-127.14 26.077-141.23-4.7-14.09-17.623-82.967-129.724-125.865z"/></g><g clip-path="url(#b)"><circle fill="#F5B244" cx="327.891" cy="258.373" r="69.345"/><circle fill="#DDA23D" cx="327.891" cy="258.373" r="53.334"/><path opacity=".5" fill="#FFF" d="M327.892 313.307c-30.29 0-54.936-24.643-54.936-54.934s24.645-54.936 54.936-54.936c30.292 0 54.935 24.645 54.935 54.936s-24.643 54.934-54.935 54.934zm0-106.668c-28.525 0-51.733 23.206-51.733 51.732s23.207 51.733 51.732 51.733c28.526 0 51.733-23.207 51.733-51.733 0-28.525-23.207-51.733-51.733-51.733z"/><g opacity=".8"><path fill="#FFF" d="M353.362 242.494c0 2.907-1.674 5.285-4.668 5.285-4.757 0-8.192-8.897-16.295-8.897-2.556 0-4.757 1.233-4.757 4.05 0 8.457 26.864 3.437 26.864 23.696 0 11.537-12.507 17.703-18.938 18.232-2.115.175-1.85.88-1.85 2.993 0 4.316-.266 4.23-4.583 4.23-4.05 0-5.107.617-5.107-3.877 0-1.41.44-3.08-1.32-3.258-3.35-.44-10.22-1.938-12.773-3.787-3.082-2.292-4.843-10.13-4.843-13.655 0-2.024.88-4.138 3.17-4.138 6.08 0 4.844 12.33 18.497 12.33 1.94 0 6.43-.88 6.43-3.786 0-2.643-.79-3.17-10.305-6.606-8.014-2.82-16.382-8.366-16.382-17.88 0-8.808 7.134-15.855 15.503-17.527 2.29-.44 2.025-.704 2.025-3.083 0-4.404.266-4.227 4.582-4.227 4.14 0 5.108-.617 5.108 3.875 0 1.233-.44 2.996 1.145 3.347 1.146.177 5.547 1.32 6.076 1.32 1.06 0 2.38-.878 3.965-.878 3.26-.003 8.457 6.78 8.457 12.24z"/></g><path fill="#FF884D" d="M235.584 303.63s32.583-8.034 75.474-8.034c42.89 0 96.158 24.96 96.158 24.96l-19.893 54.882-147.056-40.62-4.683-31.187z"/></g><path clip-path="url(#b)" fill="#F1B085" d="M277.843 167.293c-3.39 5.273-7.045 11.66-11.177 19.745-24 46.96-18.518 69.985-10.972 81.305 7.547 11.318 21.067 3.458 26.098-2.2 5.03-5.66 10.863-50.082 31.558-78.75 4.408-6.106 9.77-12.123 15.627-17.61-16.852-2.112-33.972-3.473-51.134-2.49zM389.905 192.27c-2.064 5.285-3.997 10.908-4.857 17.102-.344 2.478-.732 5.228-1.122 8.165 8.363 11.456 13.31 25.564 13.31 40.835 0 7.56-1.226 14.832-3.463 21.645.815.295 1.677.52 2.595.664 23.564 3.676 22.636-42.58 33.114-73.198-12.995-5.58-26.054-10.883-39.577-15.212z"/><path clip-path="url(#b)" fill="#E87442" d="M515.654 391.134c-1.62-.688-3.21-1.456-4.763-2.307-3.97-2.17-5.426-7.15-3.252-11.12 2.17-3.97 7.163-5.41 11.12-3.255 8.102 4.434 17.966 5.724 25.855 3.406-8.035-8.494-10.325-19.623-6.24-31.357 4.583-13.16 11.59-16.797 16.66-17.53 6.187-.895 12.248 2.09 16.624 8.19 5.724 7.978 8.834 22.573 2.136 35.767-.274.544-.558 1.078-.852 1.603 5.895.956 11.46.31 14.353-1.797 3.657-2.665 8.783-1.857 11.447 1.8 2.664 3.66 1.857 8.784-1.8 11.448-8.816 6.418-23.52 6.94-36.27 2.19-3.274 2.255-6.912 4.016-10.866 5.24-10.653 3.297-23.082 2.416-34.15-2.276zm41.6-45.657c-.67.67-2.004 2.396-3.403 6.41-2.235 6.428-.933 11.673 3.993 15.982.476-.75.923-1.537 1.34-2.36 2.402-4.736 2.705-10.572.81-15.615-.89-2.374-2.03-3.804-2.74-4.418z"/><g clip-path="url(#b)"><path fill="#00B4BB" d="M602 114c7.738 0 7.738-12 0-12s-7.738 12 0 12z"/></g><g><path fill="#00B4BB" d="M835.97 9.09v144.66S523 151.05 516 151.05s-6.5-2.72-6.83-7.29c-.86-12-2.65-37.14-4.4-61.76-2.23-31.52-4.38-62.19-4.38-63.3 0-2.32 4.36-3.12 4.36-3.12l331.22-6.49z"/></g><path fill="#02A3A3" d="M835.97 82l-2.95 71.75S523 151.05 516 151.05s-6.5-2.72-6.83-7.29c-.86-12-2.65-37.14-4.4-61.76h331.2z"/></svg>